<svg width="24" height="23" viewBox="0 0 24 23" fill="none" xmlns="http://www.w3.org/2000/svg">
<path d="M10.7143 17.4231C10.7143 17.6475 10.624 17.8627 10.4632 18.0214C10.3025 18.1801 10.0845 18.2692 9.85714 18.2692H6.85714C6.62981 18.2692 6.4118 18.1801 6.25105 18.0214C6.09031 17.8627 6 17.6475 6 17.4231C6 17.1987 6.09031 16.9834 6.25105 16.8248C6.4118 16.6661 6.62981 16.5769 6.85714 16.5769H9.85714C10.0845 16.5769 10.3025 16.6661 10.4632 16.8248C10.624 16.9834 10.7143 17.1987 10.7143 17.4231ZM17.1429 16.5769H14.1429C13.9155 16.5769 13.6975 16.6661 13.5368 16.8248C13.376 16.9834 13.2857 17.1987 13.2857 17.4231C13.2857 17.6475 13.376 17.8627 13.5368 18.0214C13.6975 18.1801 13.9155 18.2692 14.1429 18.2692H17.1429C17.3702 18.2692 17.5882 18.1801 17.749 18.0214C17.9097 17.8627 18 17.6475 18 17.4231C18 17.1987 17.9097 16.9834 17.749 16.8248C17.5882 16.6661 17.3702 16.5769 17.1429 16.5769ZM24 21.6538C24 21.8783 23.9097 22.0935 23.749 22.2522C23.5882 22.4109 23.3702 22.5 23.1429 22.5H0.857143C0.629814 22.5 0.411797 22.4109 0.251051 22.2522C0.0903058 22.0935 0 21.8783 0 21.6538C0 21.4294 0.0903058 21.2142 0.251051 21.0555C0.411797 20.8968 0.629814 20.8077 0.857143 20.8077H1.71429V8.11539C1.71429 7.95824 1.75861 7.80421 1.8423 7.67054C1.92599 7.53686 2.04573 7.42884 2.1881 7.35856C2.33048 7.28829 2.48987 7.25854 2.6484 7.27265C2.80694 7.28676 2.95837 7.34418 3.08571 7.43846L8.57143 11.5V8.11539C8.57143 7.95824 8.61576 7.80421 8.69944 7.67054C8.78313 7.53686 8.90287 7.42884 9.04525 7.35856C9.18762 7.28829 9.34701 7.25854 9.50555 7.27265C9.66409 7.28676 9.81551 7.34418 9.94286 7.43846L14.0936 10.5111L15.3321 1.95327C15.3921 1.55066 15.5964 1.18263 15.9077 0.915983C16.2191 0.649334 16.6171 0.501742 17.0293 0.5H18.9707C19.3829 0.501742 19.7809 0.649334 20.0923 0.915983C20.4036 1.18263 20.6079 1.55066 20.6679 1.95327C21.2092 5.69889 21.7806 9.44143 22.2836 13.1923V20.8077H23.1407C23.2535 20.8074 23.3651 20.8291 23.4694 20.8715C23.5736 20.9139 23.6684 20.9762 23.7482 21.0548C23.828 21.1334 23.8913 21.2267 23.9345 21.3295C23.9778 21.4323 24 21.5426 24 21.6538ZM15.6579 11.6692L16.5718 12.3462H20.4407L18.9707 2.19231H17.0293L15.6579 11.6692ZM3.42857 20.8077H20.5714V14.0385H16.2857C16.1003 14.0385 15.9198 13.9791 15.7714 13.8692L14.2286 12.7269L10.2857 9.80769V13.1923C10.2857 13.3494 10.2414 13.5035 10.1577 13.6372C10.074 13.7708 9.95427 13.8789 9.8119 13.9491C9.66952 14.0194 9.51013 14.0492 9.3516 14.035C9.19306 14.0209 9.04163 13.9635 8.91429 13.8692L3.42857 9.80769V20.8077Z" fill="#888888"/>
</svg>
