<svg width="24" height="25" viewBox="0 0 24 25" fill="none" xmlns="http://www.w3.org/2000/svg">
<path d="M22 16.5004V21.5004C22 21.7656 21.8946 22.0199 21.7071 22.2075C21.5196 22.395 21.2652 22.5004 21 22.5004H3C2.73478 22.5004 2.48043 22.395 2.29289 22.2075C2.10536 22.0199 2 21.7656 2 21.5004V16.5004H0V21.5004C0 22.296 0.31607 23.0591 0.87868 23.6217C1.44129 24.1843 2.20435 24.5004 3 24.5004H21C21.7956 24.5004 22.5587 24.1843 23.1213 23.6217C23.6839 23.0591 24 22.296 24 21.5004V16.5004H22Z" fill="#F6F6F6"/>
<path d="M12.0322 19.5C12.4263 19.5007 12.8166 19.4234 13.1808 19.2728C13.545 19.1221 13.8758 18.9009 14.1542 18.622L18.0732 14.7L16.6592 13.29L13.0262 16.924L13.0002 0.5H11.0002L11.0262 16.908L7.40619 13.288L5.99219 14.7L9.91119 18.619C10.1893 18.8983 10.5198 19.1199 10.8838 19.2711C11.2478 19.4223 11.638 19.5001 12.0322 19.5Z" fill="#F6F6F6"/>
</svg>
