<svg width="25" height="24" viewBox="0 0 25 24" fill="none" xmlns="http://www.w3.org/2000/svg">
<path d="M23.6798 3.36C23.553 3.02291 23.3472 2.72114 23.0798 2.48C22.7877 2.24329 22.4401 2.08497 22.0698 2.02C21.9598 2.01 21.8598 2 21.7498 2C21.489 1.9995 21.2308 2.05048 20.9898 2.15L3.07076 9.35C2.78426 9.46555 2.52791 9.64496 2.32124 9.87457C2.11457 10.1042 1.96302 10.3779 1.87816 10.675C1.79329 10.972 1.77733 11.2845 1.83151 11.5886C1.88568 11.8928 2.00855 12.1805 2.19076 12.43C2.43478 12.7659 2.77728 13.0175 3.17076 13.15L6.79976 14.41L8.81976 21.06C9.16976 22.002 9.71976 22.208 10.4988 21.46L13.2188 18.47L17.2488 21.58C17.6047 21.8525 18.0405 22.0001 18.4888 22C18.9581 21.9987 19.4129 21.8375 19.7783 21.543C20.1437 21.2485 20.3978 20.8383 20.4988 20.38L23.7598 4.43C23.8338 4.07288 23.8061 3.70215 23.6798 3.36ZM18.4898 20.01L13.7098 16.33C13.5359 16.1932 13.321 16.1192 13.0998 16.12H13.0098C12.76 16.1465 12.5286 16.264 12.3598 16.45L11.4898 17.4L11.7998 15.92L18.8798 8.87C19.0485 8.70132 19.1513 8.47787 19.1698 8.24C19.1877 8.00123 19.1204 7.76383 18.9798 7.57C18.8354 7.38096 18.6307 7.24689 18.3998 7.19C18.3236 7.17838 18.2468 7.1717 18.1698 7.17C18.01 7.17082 17.8526 7.20846 17.7098 7.28L7.54076 12.55L3.83076 11.27L3.79976 11.21L21.7998 3.976L18.5418 19.976L18.5148 20L18.4898 20.01ZM9.89976 15.23L9.58976 16.72L8.81076 14.14L12.8598 12.04L10.1698 14.72C10.0307 14.8591 9.93665 15.0368 9.89976 15.23Z" fill="#888888"/>
</svg>
