<svg width="25" height="24" viewBox="0 0 25 24" fill="none" xmlns="http://www.w3.org/2000/svg">
<path d="M21.1001 3.48597C19.4298 1.8225 17.3055 0.689712 14.9938 0.229858C12.6821 -0.229995 10.2861 0.00358114 8.10671 0.901259C5.92728 1.79894 4.06156 3.3207 2.74383 5.27546C1.4261 7.23023 0.715099 9.53086 0.700098 11.8885C0.700308 13.9745 1.24936 16.0237 2.2921 17.8302L0.600098 24.0001L6.9321 22.3436C8.74874 23.3315 10.7904 23.8313 12.8579 23.7942C14.9253 23.7571 16.9478 23.1843 18.7278 22.1317C20.5078 21.0792 21.9845 19.5829 23.0138 17.789C24.043 15.9951 24.5896 13.9648 24.6001 11.8965C24.6035 10.3324 24.2958 8.78338 23.6949 7.33946C23.094 5.89554 22.212 4.58562 21.1001 3.48597ZM12.6481 21.7794C10.867 21.7787 9.11841 21.3021 7.5831 20.399L7.2211 20.1829L3.4581 21.1672L4.4581 17.5181L4.2171 17.146C2.93371 15.0782 2.45521 12.6104 2.87268 10.2126C3.29015 7.81471 4.57444 5.65408 6.48111 4.14193C8.38778 2.62978 10.7837 1.87167 13.2129 2.01189C15.6421 2.15212 17.935 3.18089 19.6551 4.90239C21.0426 6.28455 21.9879 8.04811 22.371 9.96897C22.7541 11.8898 22.5577 13.8812 21.8066 15.6902C21.0556 17.4991 19.7839 19.0438 18.1532 20.128C16.5224 21.2123 14.6062 21.7871 12.6481 21.7794ZM18.1001 14.3852C17.8001 14.2412 16.3281 13.521 16.0621 13.4129C15.7961 13.3049 15.5921 13.2689 15.3871 13.557C15.1821 13.845 14.6151 14.5292 14.4461 14.7213C14.2771 14.9134 14.0961 14.9494 13.7951 14.7933C12.9145 14.4463 12.102 13.9465 11.3951 13.3169C10.7423 12.7137 10.1813 12.0181 9.7301 11.2523C9.5611 10.9522 9.7061 10.7961 9.8621 10.6401C9.9951 10.5081 10.1621 10.292 10.3091 10.1239C10.4314 9.97458 10.5324 9.80895 10.6091 9.6318C10.6478 9.55042 10.6659 9.46075 10.6617 9.37072C10.6575 9.28068 10.6312 9.19307 10.5851 9.11564C10.5131 8.9716 9.9101 7.50717 9.6681 6.90699C9.4271 6.33082 9.1741 6.40684 8.9931 6.39084H8.4151C8.26313 6.39335 8.11339 6.42778 7.97558 6.49188C7.83777 6.55598 7.71495 6.64833 7.6151 6.76295C7.28199 7.08428 7.01843 7.47063 6.84073 7.89805C6.66304 8.32546 6.57501 8.78483 6.5821 9.24768C6.67956 10.3689 7.10297 11.4372 7.8001 12.3206C9.08006 14.2359 10.8381 15.7835 12.9001 16.8099C13.4533 17.0529 14.0211 17.2614 14.6001 17.4341C15.2096 17.6179 15.8532 17.6589 16.4811 17.5541C16.898 17.4725 17.2931 17.3042 17.6408 17.0602C17.9886 16.8162 18.2814 16.502 18.5001 16.1377C18.7034 15.695 18.7625 15.1995 18.6691 14.7213C18.5821 14.5893 18.4001 14.5292 18.1001 14.3852Z" fill="#888888"/>
</svg>
