<svg width="25" height="24" viewBox="0 0 25 24" fill="none" xmlns="http://www.w3.org/2000/svg">
<path d="M12.2006 1.59335C2.92567 1.59035 -1.71981 12.7975 4.83669 19.3532C6.29224 20.8085 8.14686 21.7997 10.166 22.2014C12.1851 22.6031 14.2781 22.3972 16.1801 21.6098C18.0822 20.8224 19.708 19.4889 20.8518 17.7779C21.9956 16.0669 22.6062 14.0553 22.6062 11.9975C22.6062 6.25285 17.9487 1.59535 12.2006 1.59335ZM6.30648 6.7829C6.80775 4.18463 10.2016 3.48855 11.6854 5.67979C13.1691 7.87002 11.2631 10.7623 8.66374 10.2623C8.28034 10.1887 7.91521 10.0402 7.58921 9.82551C7.26322 9.61078 6.98275 9.33395 6.76384 9.01083C6.54493 8.68771 6.39186 8.32463 6.31338 7.94235C6.23491 7.56008 6.23256 7.16609 6.30648 6.7829ZM10.6308 15.7719C10.1265 18.3691 6.73271 19.0602 5.25091 16.868C3.77012 14.6757 5.67814 11.7874 8.27753 12.2885C8.66098 12.3625 9.02606 12.5114 9.3519 12.7266C9.67775 12.9418 9.95796 13.2191 10.1765 13.5426C10.3951 13.8661 10.5477 14.2295 10.6256 14.612C10.7036 14.9945 10.7053 15.3887 10.6308 15.7719ZM11.8915 13.3666C10.7388 13.1436 10.4287 11.6394 11.4002 10.9794C12.3707 10.3193 13.6574 11.1594 13.4413 12.3135C13.4092 12.4845 13.3437 12.6475 13.2484 12.7932C13.1531 12.9388 13.0299 13.0641 12.886 13.162C12.742 13.2599 12.5802 13.3283 12.4097 13.3634C12.2391 13.3986 12.0624 13.3996 11.8915 13.3666ZM18.0938 17.205C17.5925 19.8033 14.1987 20.4984 12.7149 18.3081C11.2301 16.1169 13.1361 13.2256 15.7365 13.7246C16.12 13.7983 16.4852 13.9467 16.8113 14.1615C17.1374 14.3763 17.4179 14.6532 17.6368 14.9765C17.8557 15.2997 18.0088 15.6629 18.0872 16.0453C18.1656 16.4277 18.1678 16.8218 18.0938 17.205ZM16.1257 11.7024C13.5263 11.2014 12.831 7.80601 15.0231 6.32186C17.2143 4.8387 20.1068 6.7439 19.6076 9.34218C19.5344 9.72587 19.3862 10.0914 19.1715 10.4178C18.9568 10.7441 18.6799 11.025 18.3564 11.2442C18.033 11.4634 17.6695 11.6168 17.2867 11.6954C16.904 11.774 16.5094 11.7764 16.1257 11.7024ZM13.7905 23.2657L16.0557 23.8757C17.0082 24.1283 18.0221 23.9926 18.8744 23.4982C19.7268 23.0038 20.3479 22.1914 20.6011 21.2394L21.2415 18.8372C19.4386 21.2376 16.7604 22.8292 13.7895 23.2657M21.4366 3.59857L19.0723 2.9695C20.2671 3.88814 21.2674 5.03486 22.0153 6.34309C22.7631 7.65131 23.2435 9.09499 23.4286 10.5903L24.079 8.13105C24.3279 7.17982 24.1894 6.16875 23.6939 5.31937C23.1985 4.46998 22.3864 3.85155 21.4356 3.59957M0.865573 13.8097L0.324284 15.8499C0.0715466 16.802 0.207395 17.8154 0.701963 18.6674C1.19653 19.5194 2.00934 20.1402 2.96169 20.3934L5.06982 20.9554C2.81915 19.1867 1.3187 16.6353 0.865573 13.8097ZM10.5557 0.701259L8.34757 0.125197C7.8756 -0.000472 7.38349 -0.0319317 6.89936 0.0326166C6.41522 0.0971649 5.94856 0.256455 5.52605 0.501383C5.10354 0.74631 4.73346 1.07207 4.43698 1.46004C4.14049 1.84802 3.92341 2.2906 3.79814 2.76248L3.24684 4.8447C5.06554 2.5821 7.67957 1.09983 10.5557 0.701259Z" fill="#888888"/>
</svg>
