<svg width="329" height="120" viewBox="0 0 329 120" fill="none" xmlns="http://www.w3.org/2000/svg">
<path d="M71.2766 77.1867H86V93.2992H71.2766V120H51.5698V93.2992H0.528534L0 81.0997L50.8903 0L71.2766 0V77.1867ZM20.6883 77.1867H51.5698V27.0844L50.1352 29.7698L20.6883 77.1867Z" fill="#F6F6F6"/>
<path d="M178 69.2968C178 86.0734 174.858 98.7181 168.574 107.231C162.34 115.744 152.84 120 140.074 120C127.556 120 118.105 115.843 111.723 107.53C105.389 99.2159 102.148 86.9197 102 70.641V50.4045C102 33.6279 105.117 21.033 111.352 12.6198C117.586 4.2066 127.111 0 139.926 0C152.642 0 162.117 4.10703 168.352 12.3211C174.586 20.4854 177.802 32.7318 178 49.0604V69.2968ZM158.555 47.4175C158.555 36.4655 157.07 28.4505 154.102 23.3728C151.133 18.2452 146.408 15.6814 139.926 15.6814C133.592 15.6814 128.941 18.0958 125.973 22.9247C123.004 27.7536 121.445 35.3205 121.297 45.6254V72.0597C121.297 82.962 122.806 91.1014 125.824 96.4779C128.842 101.805 133.592 104.468 140.074 104.468C146.309 104.468 150.91 102.004 153.879 97.0753C156.848 92.0971 158.406 84.3559 158.555 73.8519V47.4175Z" fill="#E33026"/>
<path d="M208.723 42.8133L194 42.8133L194 26.7008L208.723 26.7008L208.723 9.02759e-06L228.43 1.07504e-05L228.43 26.7008L279.471 26.7008L280 38.9003L229.11 120L208.723 120L208.723 42.8133ZM259.312 42.8133L228.43 42.8133L228.43 92.9156L229.865 90.2302L259.312 42.8133Z" fill="#F6F6F6"/>
<path d="M324.219 77.4488H308.918L307.21 0H325.995L324.219 77.4488ZM316.227 120L304 107.221L316.705 94.2305L329 107.221L316.227 120Z" fill="white"/>
</svg>
