<svg width="24" height="24" viewBox="0 0 24 24" fill="none" xmlns="http://www.w3.org/2000/svg">
<path fill-rule="evenodd" clip-rule="evenodd" d="M0.621104 0.621104C1.01879 0.223418 1.55817 0 2.12058 0H21.8794C22.4418 0 22.9812 0.223418 23.3789 0.621104C23.7766 1.01879 24 1.55817 24 2.12058V21.8794C24 22.4418 23.7766 22.9812 23.3789 23.3789C22.9812 23.7766 22.4418 24 21.8794 24H2.12058C1.55817 24 1.01879 23.7766 0.621104 23.3789C0.223418 22.9812 0 22.4418 0 21.8794V2.12058C0 1.55817 0.223418 1.01879 0.621104 0.621104ZM1.92653 1.92653C1.978 1.87507 2.0478 1.84615 2.12058 1.84615H21.8794C21.9522 1.84615 22.022 1.87507 22.0735 1.92653C22.1249 1.978 22.1538 2.0478 22.1538 2.12058V21.8794C22.1538 21.9522 22.1249 22.022 22.0735 22.0735C22.022 22.1249 21.9522 22.1538 21.8794 22.1538H2.12058C2.0478 22.1538 1.978 22.1249 1.92653 22.0735C1.87507 22.022 1.84615 21.9522 1.84615 21.8794V2.12058C1.84615 2.0478 1.87507 1.978 1.92653 1.92653ZM6.9948 4.31702C6.23699 4.31702 5.62266 4.93135 5.62266 5.68916C5.62266 6.44697 6.23699 7.0613 6.9948 7.0613C7.75262 7.0613 8.36694 6.44697 8.36694 5.68916C8.36694 4.93135 7.75262 4.31702 6.9948 4.31702ZM11.3435 8.36409C11.2118 8.01506 10.8747 7.76681 10.4795 7.76681C9.96974 7.76681 9.55646 8.18008 9.55646 8.68988V17.6592C9.55646 18.169 9.96974 18.5823 10.4795 18.5823C10.9893 18.5823 11.4026 18.169 11.4026 17.6592V11.9058C11.404 11.226 11.675 10.5744 12.1562 10.094C12.6375 9.61358 13.2897 9.34368 13.9697 9.34352C14.6488 9.34494 15.2997 9.61534 15.7799 10.0956C16.2601 10.5758 16.5305 11.2267 16.5319 11.9058V17.6592C16.5319 18.169 16.9452 18.5823 17.455 18.5823C17.9648 18.5823 18.3781 18.169 18.3781 17.6592L18.3781 11.9036C18.3761 10.7356 17.9112 9.61603 17.0853 8.79014C16.2594 7.96424 15.1398 7.49937 13.9719 7.49737C13.0304 7.49737 12.1001 7.80376 11.3435 8.36409ZM7.91788 8.68988C7.91788 8.18008 7.5046 7.76681 6.9948 7.76681C6.485 7.76681 6.07173 8.18008 6.07173 8.68988V17.6592C6.07173 18.169 6.485 18.5823 6.9948 18.5823C7.5046 18.5823 7.91788 18.169 7.91788 17.6592V8.68988ZM7.46881 5.68916C7.46881 5.95095 7.25659 6.16317 6.9948 6.16317C6.73301 6.16317 6.52079 5.95095 6.52079 5.68916C6.52079 5.42737 6.73301 5.21515 6.9948 5.21515C7.25659 5.21515 7.46881 5.42737 7.46881 5.68916Z" fill="#888888"/>
</svg>
