<svg width="25" height="24" viewBox="0 0 25 24" fill="none" xmlns="http://www.w3.org/2000/svg">
<path fill-rule="evenodd" clip-rule="evenodd" d="M21.0375 0L22.4448 1.1585L14.5181 10.209L24.2033 22.1862C24.4212 22.4557 24.4614 22.8221 24.3068 23.13C24.1522 23.4379 23.83 23.6333 23.4768 23.6333H18.6916C18.408 23.6333 18.1401 23.5069 17.9652 23.2905L10.7734 14.3971L2.09442 24L0.705893 22.8204L9.61429 12.9638L0.59655 1.81235C0.378632 1.54287 0.338426 1.17646 0.49299 0.868562C0.647555 0.560666 0.969789 0.36527 1.32299 0.36527H6.10885C6.39245 0.36527 6.66032 0.491664 6.83529 0.70805L13.3554 8.7712L21.0375 0ZM5.65958 2.15512H3.21962C8.5267 8.71789 13.8338 15.2807 19.1408 21.8434H21.5802C16.2729 15.281 10.9665 8.71789 5.65958 2.15512Z" fill="#888888"/>
</svg>
