<svg width="24" height="24" viewBox="0 0 24 24" fill="none" xmlns="http://www.w3.org/2000/svg">
<path d="M16.183 7.827C15.2159 6.8562 13.9419 6.25097 12.5784 6.11454C11.2149 5.97812 9.84626 6.31893 8.70596 7.07887C7.56566 7.83881 6.72431 8.9708 6.32539 10.2818C5.92648 11.5928 5.99472 13.0015 6.51847 14.2678C7.04222 15.5341 7.98904 16.5795 9.19745 17.2256C10.4059 17.8718 11.801 18.0788 13.145 17.8112C14.4889 17.5436 15.6984 16.8181 16.5672 15.7584C17.436 14.6986 17.9102 13.3703 17.909 12C17.9106 11.225 17.7589 10.4573 17.4627 9.74113C17.1665 9.02496 16.7316 8.37444 16.183 7.827ZM14.721 14.721C14.1837 15.2589 13.499 15.6253 12.7534 15.7739C12.0078 15.9225 11.2349 15.8466 10.5324 15.5559C9.83 15.2651 9.22957 14.7725 8.80712 14.1405C8.38467 13.5084 8.15918 12.7652 8.15918 12.005C8.15918 11.2448 8.38467 10.5016 8.80712 9.86953C9.22957 9.23746 9.83 8.7449 10.5324 8.45415C11.2349 8.1634 12.0078 8.08753 12.7534 8.23613C13.499 8.38474 14.1837 8.75115 14.721 9.289C15.0771 9.64468 15.3591 10.0674 15.5508 10.5327C15.7425 10.998 15.8401 11.4967 15.838 12C15.8405 13.0191 15.4388 13.9976 14.721 14.721ZM19.35 4.66C19.2252 4.53524 19.0771 4.43628 18.9141 4.36877C18.7511 4.30125 18.5764 4.2665 18.4 4.2665C18.2236 4.2665 18.0489 4.30125 17.8859 4.36877C17.7229 4.43628 17.5748 4.53524 17.45 4.66C17.3252 4.78476 17.2263 4.93286 17.1588 5.09586C17.0912 5.25886 17.0565 5.43357 17.0565 5.61C17.0565 5.78643 17.0912 5.96114 17.1588 6.12414C17.2263 6.28714 17.3252 6.43524 17.45 6.56C17.7067 6.80292 18.0466 6.93829 18.4 6.93829C18.7534 6.93829 19.0933 6.80292 19.35 6.56C19.598 6.30596 19.7368 5.96502 19.7368 5.61C19.7368 5.25498 19.598 4.91404 19.35 4.66ZM19.35 4.66C19.2252 4.53524 19.0771 4.43628 18.9141 4.36877C18.7511 4.30125 18.5764 4.2665 18.4 4.2665C18.2236 4.2665 18.0489 4.30125 17.8859 4.36877C17.7229 4.43628 17.5748 4.53524 17.45 4.66C17.3252 4.78476 17.2263 4.93286 17.1588 5.09586C17.0912 5.25886 17.0565 5.43357 17.0565 5.61C17.0565 5.78643 17.0912 5.96114 17.1588 6.12414C17.2263 6.28714 17.3252 6.43524 17.45 6.56C17.7067 6.80292 18.0466 6.93829 18.4 6.93829C18.7534 6.93829 19.0933 6.80292 19.35 6.56C19.598 6.30596 19.7368 5.96502 19.7368 5.61C19.7368 5.25498 19.598 4.91404 19.35 4.66ZM16.183 7.827C15.2159 6.8562 13.9419 6.25097 12.5784 6.11454C11.2149 5.97812 9.84626 6.31893 8.70596 7.07887C7.56566 7.83881 6.72431 8.9708 6.32539 10.2818C5.92648 11.5928 5.99472 13.0015 6.51847 14.2678C7.04222 15.5341 7.98904 16.5795 9.19745 17.2256C10.4059 17.8718 11.801 18.0788 13.145 17.8112C14.4889 17.5436 15.6984 16.8181 16.5672 15.7584C17.436 14.6986 17.9102 13.3703 17.909 12C17.9106 11.225 17.7589 10.4573 17.4627 9.74113C17.1665 9.02496 16.7316 8.37444 16.183 7.827ZM14.721 14.721C14.1837 15.2589 13.499 15.6253 12.7534 15.7739C12.0078 15.9225 11.2349 15.8466 10.5324 15.5559C9.83 15.2651 9.22957 14.7725 8.80712 14.1405C8.38467 13.5084 8.15918 12.7652 8.15918 12.005C8.15918 11.2448 8.38467 10.5016 8.80712 9.86953C9.22957 9.23746 9.83 8.7449 10.5324 8.45415C11.2349 8.1634 12.0078 8.08753 12.7534 8.23613C13.499 8.38474 14.1837 8.75115 14.721 9.289C15.0771 9.64468 15.3591 10.0674 15.5508 10.5327C15.7425 10.998 15.8401 11.4967 15.838 12C15.8405 13.0191 15.4388 13.9976 14.721 14.721ZM16.183 7.827C15.2159 6.8562 13.9419 6.25097 12.5784 6.11454C11.2149 5.97812 9.84626 6.31893 8.70596 7.07887C7.56566 7.83881 6.72431 8.9708 6.32539 10.2818C5.92648 11.5928 5.99472 13.0015 6.51847 14.2678C7.04222 15.5341 7.98904 16.5795 9.19745 17.2256C10.4059 17.8718 11.801 18.0788 13.145 17.8112C14.4889 17.5436 15.6984 16.8181 16.5672 15.7584C17.436 14.6986 17.9102 13.3703 17.909 12C17.9106 11.225 17.7589 10.4573 17.4627 9.74113C17.1665 9.02496 16.7316 8.37444 16.183 7.827ZM14.721 14.721C14.1837 15.2589 13.499 15.6253 12.7534 15.7739C12.0078 15.9225 11.2349 15.8466 10.5324 15.5559C9.83 15.2651 9.22957 14.7725 8.80712 14.1405C8.38467 13.5084 8.15918 12.7652 8.15918 12.005C8.15918 11.2448 8.38467 10.5016 8.80712 9.86953C9.22957 9.23746 9.83 8.7449 10.5324 8.45415C11.2349 8.1634 12.0078 8.08753 12.7534 8.23613C13.499 8.38474 14.1837 8.75115 14.721 9.289C15.0771 9.64468 15.3591 10.0674 15.5508 10.5327C15.7425 10.998 15.8401 11.4967 15.838 12C15.8405 13.0191 15.4388 13.9976 14.721 14.721ZM19.35 4.66C19.2252 4.53524 19.0771 4.43628 18.9141 4.36877C18.7511 4.30125 18.5764 4.2665 18.4 4.2665C18.2236 4.2665 18.0489 4.30125 17.8859 4.36877C17.7229 4.43628 17.5748 4.53524 17.45 4.66C17.3252 4.78476 17.2263 4.93286 17.1588 5.09586C17.0912 5.25886 17.0565 5.43357 17.0565 5.61C17.0565 5.78643 17.0912 5.96114 17.1588 6.12414C17.2263 6.28714 17.3252 6.43524 17.45 6.56C17.7067 6.80292 18.0466 6.93829 18.4 6.93829C18.7534 6.93829 19.0933 6.80292 19.35 6.56C19.598 6.30596 19.7368 5.96502 19.7368 5.61C19.7368 5.25498 19.598 4.91404 19.35 4.66ZM19.35 4.66C19.2252 4.53524 19.0771 4.43628 18.9141 4.36877C18.7511 4.30125 18.5764 4.2665 18.4 4.2665C18.2236 4.2665 18.0489 4.30125 17.8859 4.36877C17.7229 4.43628 17.5748 4.53524 17.45 4.66C17.3252 4.78476 17.2263 4.93286 17.1588 5.09586C17.0912 5.25886 17.0565 5.43357 17.0565 5.61C17.0565 5.78643 17.0912 5.96114 17.1588 6.12414C17.2263 6.28714 17.3252 6.43524 17.45 6.56C17.7067 6.80292 18.0466 6.93829 18.4 6.93829C18.7534 6.93829 19.0933 6.80292 19.35 6.56C19.598 6.30596 19.7368 5.96502 19.7368 5.61C19.7368 5.25498 19.598 4.91404 19.35 4.66ZM16.183 7.827C15.2159 6.8562 13.9419 6.25097 12.5784 6.11454C11.2149 5.97812 9.84626 6.31893 8.70596 7.07887C7.56566 7.83881 6.72431 8.9708 6.32539 10.2818C5.92648 11.5928 5.99472 13.0015 6.51847 14.2678C7.04222 15.5341 7.98904 16.5795 9.19745 17.2256C10.4059 17.8718 11.801 18.0788 13.145 17.8112C14.4889 17.5436 15.6984 16.8181 16.5672 15.7584C17.436 14.6986 17.9102 13.3703 17.909 12C17.9106 11.225 17.7589 10.4573 17.4627 9.74113C17.1665 9.02496 16.7316 8.37444 16.183 7.827ZM14.721 14.721C14.1837 15.2589 13.499 15.6253 12.7534 15.7739C12.0078 15.9225 11.2349 15.8466 10.5324 15.5559C9.83 15.2651 9.22957 14.7725 8.80712 14.1405C8.38467 13.5084 8.15918 12.7652 8.15918 12.005C8.15918 11.2448 8.38467 10.5016 8.80712 9.86953C9.22957 9.23746 9.83 8.7449 10.5324 8.45415C11.2349 8.1634 12.0078 8.08753 12.7534 8.23613C13.499 8.38474 14.1837 8.75115 14.721 9.289C15.0771 9.64468 15.3591 10.0674 15.5508 10.5327C15.7425 10.998 15.8401 11.4967 15.838 12C15.8405 13.0191 15.4388 13.9976 14.721 14.721ZM16.183 7.827C15.2159 6.8562 13.9419 6.25097 12.5784 6.11454C11.2149 5.97812 9.84626 6.31893 8.70596 7.07887C7.56566 7.83881 6.72431 8.9708 6.32539 10.2818C5.92648 11.5928 5.99472 13.0015 6.51847 14.2678C7.04222 15.5341 7.98904 16.5795 9.19745 17.2256C10.4059 17.8718 11.801 18.0788 13.145 17.8112C14.4889 17.5436 15.6984 16.8181 16.5672 15.7584C17.436 14.6986 17.9102 13.3703 17.909 12C17.9106 11.225 17.7589 10.4573 17.4627 9.74113C17.1665 9.02496 16.7316 8.37444 16.183 7.827ZM14.721 14.721C14.1837 15.2589 13.499 15.6253 12.7534 15.7739C12.0078 15.9225 11.2349 15.8466 10.5324 15.5559C9.83 15.2651 9.22957 14.7725 8.80712 14.1405C8.38467 13.5084 8.15918 12.7652 8.15918 12.005C8.15918 11.2448 8.38467 10.5016 8.80712 9.86953C9.22957 9.23746 9.83 8.7449 10.5324 8.45415C11.2349 8.1634 12.0078 8.08753 12.7534 8.23613C13.499 8.38474 14.1837 8.75115 14.721 9.289C15.0771 9.64468 15.3591 10.0674 15.5508 10.5327C15.7425 10.998 15.8401 11.4967 15.838 12C15.8405 13.0191 15.4388 13.9976 14.721 14.721ZM19.35 4.66C19.2252 4.53524 19.0771 4.43628 18.9141 4.36877C18.7511 4.30125 18.5764 4.2665 18.4 4.2665C18.2236 4.2665 18.0489 4.30125 17.8859 4.36877C17.7229 4.43628 17.5748 4.53524 17.45 4.66C17.3252 4.78476 17.2263 4.93286 17.1588 5.09586C17.0912 5.25886 17.0565 5.43357 17.0565 5.61C17.0565 5.78643 17.0912 5.96114 17.1588 6.12414C17.2263 6.28714 17.3252 6.43524 17.45 6.56C17.7067 6.80292 18.0466 6.93829 18.4 6.93829C18.7534 6.93829 19.0933 6.80292 19.35 6.56C19.598 6.30596 19.7368 5.96502 19.7368 5.61C19.7368 5.25498 19.598 4.91404 19.35 4.66ZM19.35 4.66C19.2252 4.53524 19.0771 4.43628 18.9141 4.36877C18.7511 4.30125 18.5764 4.2665 18.4 4.2665C18.2236 4.2665 18.0489 4.30125 17.8859 4.36877C17.7229 4.43628 17.5748 4.53524 17.45 4.66C17.3252 4.78476 17.2263 4.93286 17.1588 5.09586C17.0912 5.25886 17.0565 5.43357 17.0565 5.61C17.0565 5.78643 17.0912 5.96114 17.1588 6.12414C17.2263 6.28714 17.3252 6.43524 17.45 6.56C17.7067 6.80292 18.0466 6.93829 18.4 6.93829C18.7534 6.93829 19.0933 6.80292 19.35 6.56C19.598 6.30596 19.7368 5.96502 19.7368 5.61C19.7368 5.25498 19.598 4.91404 19.35 4.66ZM12 6.091C10.633 6.09077 9.3081 6.56446 8.2511 7.43139C7.1941 8.29833 6.47032 9.50488 6.20305 10.8456C5.93579 12.1862 6.14155 13.5781 6.78531 14.7841C7.42906 15.9901 8.47099 16.9356 9.73362 17.4596C10.9963 17.9836 12.4015 18.0537 13.71 17.6579C15.0185 17.2621 16.1493 16.425 16.9099 15.289C17.6705 14.1531 18.0137 12.7886 17.8812 11.428C17.7486 10.0674 17.1485 8.79481 16.183 7.827C15.6354 7.27518 14.9836 6.83758 14.2656 6.53957C13.5475 6.24157 12.7774 6.0891 12 6.091ZM14.721 14.721C14.1837 15.2589 13.499 15.6253 12.7534 15.7739C12.0078 15.9225 11.2349 15.8466 10.5324 15.5559C9.83 15.2651 9.22957 14.7725 8.80712 14.1405C8.38467 13.5084 8.15918 12.7652 8.15918 12.005C8.15918 11.2448 8.38467 10.5016 8.80712 9.86953C9.22957 9.23746 9.83 8.7449 10.5324 8.45415C11.2349 8.1634 12.0078 8.08753 12.7534 8.23613C13.499 8.38474 14.1837 8.75115 14.721 9.289C15.0771 9.64468 15.3591 10.0674 15.5508 10.5327C15.7425 10.998 15.8401 11.4967 15.838 12C15.8405 13.0191 15.4388 13.9976 14.721 14.721ZM17.117 0H6.883C5.05889 0.00448866 3.31078 0.731101 2.02094 2.02094C0.731101 3.31078 0.00448866 5.05889 0 6.883L0 17.117C0.00448866 18.9411 0.731101 20.6892 2.02094 21.9791C3.31078 23.2689 5.05889 23.9955 6.883 24H17.117C18.0216 24.0026 18.9179 23.8264 19.7541 23.4814C20.5904 23.1365 21.3502 22.6296 21.9899 21.9899C22.6296 21.3502 23.1365 20.5904 23.4814 19.7541C23.8264 18.9179 24.0026 18.0216 24 17.117V6.883C23.9984 5.058 23.2727 3.30821 21.9823 2.01774C20.6918 0.72727 18.942 0.0015888 17.117 0ZM21.929 17.36C21.9273 18.5693 21.4495 19.7293 20.599 20.589C20.1747 21.0156 19.6699 21.3538 19.1139 21.5838C18.5579 21.8138 17.9617 21.9312 17.36 21.929H6.64C5.42879 21.9271 4.26773 21.4452 3.41127 20.5887C2.55482 19.7323 2.07285 18.5712 2.071 17.36V6.64C2.07259 5.42871 2.55447 4.26749 3.41098 3.41098C4.26749 2.55447 5.42871 2.07259 6.64 2.071H17.36C18.5718 2.071 19.7339 2.55238 20.5908 3.40923C21.4476 4.26608 21.929 5.42823 21.929 6.64V17.36ZM18.4 4.264C18.1344 4.26437 17.8748 4.34356 17.6542 4.49155C17.4336 4.63953 17.2619 4.84966 17.1608 5.0953C17.0597 5.34095 17.0338 5.61107 17.0864 5.87146C17.1389 6.13184 17.2676 6.37078 17.456 6.558C17.7127 6.80092 18.0526 6.9363 18.406 6.9363C18.7594 6.9363 19.0993 6.80092 19.356 6.558C19.5437 6.36949 19.6713 6.12956 19.7226 5.86855C19.7739 5.60753 19.7467 5.33716 19.6444 5.09161C19.5421 4.84607 19.3692 4.63638 19.1477 4.48907C18.9262 4.34175 18.666 4.26343 18.4 4.264ZM12 6.091C10.633 6.09077 9.3081 6.56446 8.2511 7.43139C7.1941 8.29833 6.47032 9.50488 6.20305 10.8456C5.93579 12.1862 6.14155 13.5781 6.78531 14.7841C7.42906 15.9901 8.47099 16.9356 9.73362 17.4596C10.9963 17.9836 12.4015 18.0537 13.71 17.6579C15.0185 17.2621 16.1493 16.425 16.9099 15.289C17.6705 14.1531 18.0137 12.7886 17.8812 11.428C17.7486 10.0674 17.1485 8.79481 16.183 7.827C15.6354 7.27518 14.9836 6.83758 14.2656 6.53957C13.5475 6.24157 12.7774 6.0891 12 6.091ZM14.721 14.721C14.1837 15.2589 13.499 15.6253 12.7534 15.7739C12.0078 15.9225 11.2349 15.8466 10.5324 15.5559C9.83 15.2651 9.22957 14.7725 8.80712 14.1405C8.38467 13.5084 8.15918 12.7652 8.15918 12.005C8.15918 11.2448 8.38467 10.5016 8.80712 9.86953C9.22957 9.23746 9.83 8.7449 10.5324 8.45415C11.2349 8.1634 12.0078 8.08753 12.7534 8.23613C13.499 8.38474 14.1837 8.75115 14.721 9.289C15.0771 9.64468 15.3591 10.0674 15.5508 10.5327C15.7425 10.998 15.8401 11.4967 15.838 12C15.8405 13.0191 15.4388 13.9976 14.721 14.721ZM16.183 7.827C15.2159 6.8562 13.9419 6.25097 12.5784 6.11454C11.2149 5.97812 9.84626 6.31893 8.70596 7.07887C7.56566 7.83881 6.72431 8.9708 6.32539 10.2818C5.92648 11.5928 5.99472 13.0015 6.51847 14.2678C7.04222 15.5341 7.98904 16.5795 9.19745 17.2256C10.4059 17.8718 11.801 18.0788 13.145 17.8112C14.4889 17.5436 15.6984 16.8181 16.5672 15.7584C17.436 14.6986 17.9102 13.3703 17.909 12C17.9106 11.225 17.7589 10.4573 17.4627 9.74113C17.1665 9.02496 16.7316 8.37444 16.183 7.827ZM14.721 14.721C14.1837 15.2589 13.499 15.6253 12.7534 15.7739C12.0078 15.9225 11.2349 15.8466 10.5324 15.5559C9.83 15.2651 9.22957 14.7725 8.80712 14.1405C8.38467 13.5084 8.15918 12.7652 8.15918 12.005C8.15918 11.2448 8.38467 10.5016 8.80712 9.86953C9.22957 9.23746 9.83 8.7449 10.5324 8.45415C11.2349 8.1634 12.0078 8.08753 12.7534 8.23613C13.499 8.38474 14.1837 8.75115 14.721 9.289C15.0771 9.64468 15.3591 10.0674 15.5508 10.5327C15.7425 10.998 15.8401 11.4967 15.838 12C15.8405 13.0191 15.4388 13.9976 14.721 14.721ZM19.35 4.66C19.2252 4.53524 19.0771 4.43628 18.9141 4.36877C18.7511 4.30125 18.5764 4.2665 18.4 4.2665C18.2236 4.2665 18.0489 4.30125 17.8859 4.36877C17.7229 4.43628 17.5748 4.53524 17.45 4.66C17.3252 4.78476 17.2263 4.93286 17.1588 5.09586C17.0912 5.25886 17.0565 5.43357 17.0565 5.61C17.0565 5.78643 17.0912 5.96114 17.1588 6.12414C17.2263 6.28714 17.3252 6.43524 17.45 6.56C17.7067 6.80292 18.0466 6.93829 18.4 6.93829C18.7534 6.93829 19.0933 6.80292 19.35 6.56C19.598 6.30596 19.7368 5.96502 19.7368 5.61C19.7368 5.25498 19.598 4.91404 19.35 4.66ZM19.35 4.66C19.2252 4.53524 19.0771 4.43628 18.9141 4.36877C18.7511 4.30125 18.5764 4.2665 18.4 4.2665C18.2236 4.2665 18.0489 4.30125 17.8859 4.36877C17.7229 4.43628 17.5748 4.53524 17.45 4.66C17.3252 4.78476 17.2263 4.93286 17.1588 5.09586C17.0912 5.25886 17.0565 5.43357 17.0565 5.61C17.0565 5.78643 17.0912 5.96114 17.1588 6.12414C17.2263 6.28714 17.3252 6.43524 17.45 6.56C17.7067 6.80292 18.0466 6.93829 18.4 6.93829C18.7534 6.93829 19.0933 6.80292 19.35 6.56C19.598 6.30596 19.7368 5.96502 19.7368 5.61C19.7368 5.25498 19.598 4.91404 19.35 4.66ZM16.183 7.827C15.2159 6.8562 13.9419 6.25097 12.5784 6.11454C11.2149 5.97812 9.84626 6.31893 8.70596 7.07887C7.56566 7.83881 6.72431 8.9708 6.32539 10.2818C5.92648 11.5928 5.99472 13.0015 6.51847 14.2678C7.04222 15.5341 7.98904 16.5795 9.19745 17.2256C10.4059 17.8718 11.801 18.0788 13.145 17.8112C14.4889 17.5436 15.6984 16.8181 16.5672 15.7584C17.436 14.6986 17.9102 13.3703 17.909 12C17.9106 11.225 17.7589 10.4573 17.4627 9.74113C17.1665 9.02496 16.7316 8.37444 16.183 7.827ZM14.721 14.721C14.1837 15.2589 13.499 15.6253 12.7534 15.7739C12.0078 15.9225 11.2349 15.8466 10.5324 15.5559C9.83 15.2651 9.22957 14.7725 8.80712 14.1405C8.38467 13.5084 8.15918 12.7652 8.15918 12.005C8.15918 11.2448 8.38467 10.5016 8.80712 9.86953C9.22957 9.23746 9.83 8.7449 10.5324 8.45415C11.2349 8.1634 12.0078 8.08753 12.7534 8.23613C13.499 8.38474 14.1837 8.75115 14.721 9.289C15.0771 9.64468 15.3591 10.0674 15.5508 10.5327C15.7425 10.998 15.8401 11.4967 15.838 12C15.8405 13.0191 15.4388 13.9976 14.721 14.721ZM16.183 7.827C15.2159 6.8562 13.9419 6.25097 12.5784 6.11454C11.2149 5.97812 9.84626 6.31893 8.70596 7.07887C7.56566 7.83881 6.72431 8.9708 6.32539 10.2818C5.92648 11.5928 5.99472 13.0015 6.51847 14.2678C7.04222 15.5341 7.98904 16.5795 9.19745 17.2256C10.4059 17.8718 11.801 18.0788 13.145 17.8112C14.4889 17.5436 15.6984 16.8181 16.5672 15.7584C17.436 14.6986 17.9102 13.3703 17.909 12C17.9106 11.225 17.7589 10.4573 17.4627 9.74113C17.1665 9.02496 16.7316 8.37444 16.183 7.827ZM14.721 14.721C14.1837 15.2589 13.499 15.6253 12.7534 15.7739C12.0078 15.9225 11.2349 15.8466 10.5324 15.5559C9.83 15.2651 9.22957 14.7725 8.80712 14.1405C8.38467 13.5084 8.15918 12.7652 8.15918 12.005C8.15918 11.2448 8.38467 10.5016 8.80712 9.86953C9.22957 9.23746 9.83 8.7449 10.5324 8.45415C11.2349 8.1634 12.0078 8.08753 12.7534 8.23613C13.499 8.38474 14.1837 8.75115 14.721 9.289C15.0771 9.64468 15.3591 10.0674 15.5508 10.5327C15.7425 10.998 15.8401 11.4967 15.838 12C15.8405 13.0191 15.4388 13.9976 14.721 14.721ZM19.35 4.66C19.2252 4.53524 19.0771 4.43628 18.9141 4.36877C18.7511 4.30125 18.5764 4.2665 18.4 4.2665C18.2236 4.2665 18.0489 4.30125 17.8859 4.36877C17.7229 4.43628 17.5748 4.53524 17.45 4.66C17.3252 4.78476 17.2263 4.93286 17.1588 5.09586C17.0912 5.25886 17.0565 5.43357 17.0565 5.61C17.0565 5.78643 17.0912 5.96114 17.1588 6.12414C17.2263 6.28714 17.3252 6.43524 17.45 6.56C17.7067 6.80292 18.0466 6.93829 18.4 6.93829C18.7534 6.93829 19.0933 6.80292 19.35 6.56C19.598 6.30596 19.7368 5.96502 19.7368 5.61C19.7368 5.25498 19.598 4.91404 19.35 4.66ZM19.35 4.66C19.2252 4.53524 19.0771 4.43628 18.9141 4.36877C18.7511 4.30125 18.5764 4.2665 18.4 4.2665C18.2236 4.2665 18.0489 4.30125 17.8859 4.36877C17.7229 4.43628 17.5748 4.53524 17.45 4.66C17.3252 4.78476 17.2263 4.93286 17.1588 5.09586C17.0912 5.25886 17.0565 5.43357 17.0565 5.61C17.0565 5.78643 17.0912 5.96114 17.1588 6.12414C17.2263 6.28714 17.3252 6.43524 17.45 6.56C17.7067 6.80292 18.0466 6.93829 18.4 6.93829C18.7534 6.93829 19.0933 6.80292 19.35 6.56C19.598 6.30596 19.7368 5.96502 19.7368 5.61C19.7368 5.25498 19.598 4.91404 19.35 4.66ZM16.183 7.827C15.2159 6.8562 13.9419 6.25097 12.5784 6.11454C11.2149 5.97812 9.84626 6.31893 8.70596 7.07887C7.56566 7.83881 6.72431 8.9708 6.32539 10.2818C5.92648 11.5928 5.99472 13.0015 6.51847 14.2678C7.04222 15.5341 7.98904 16.5795 9.19745 17.2256C10.4059 17.8718 11.801 18.0788 13.145 17.8112C14.4889 17.5436 15.6984 16.8181 16.5672 15.7584C17.436 14.6986 17.9102 13.3703 17.909 12C17.9106 11.225 17.7589 10.4573 17.4627 9.74113C17.1665 9.02496 16.7316 8.37444 16.183 7.827ZM14.721 14.721C14.1837 15.2589 13.499 15.6253 12.7534 15.7739C12.0078 15.9225 11.2349 15.8466 10.5324 15.5559C9.83 15.2651 9.22957 14.7725 8.80712 14.1405C8.38467 13.5084 8.15918 12.7652 8.15918 12.005C8.15918 11.2448 8.38467 10.5016 8.80712 9.86953C9.22957 9.23746 9.83 8.7449 10.5324 8.45415C11.2349 8.1634 12.0078 8.08753 12.7534 8.23613C13.499 8.38474 14.1837 8.75115 14.721 9.289C15.0771 9.64468 15.3591 10.0674 15.5508 10.5327C15.7425 10.998 15.8401 11.4967 15.838 12C15.8405 13.0191 15.4388 13.9976 14.721 14.721ZM16.183 7.827C15.2159 6.8562 13.9419 6.25097 12.5784 6.11454C11.2149 5.97812 9.84626 6.31893 8.70596 7.07887C7.56566 7.83881 6.72431 8.9708 6.32539 10.2818C5.92648 11.5928 5.99472 13.0015 6.51847 14.2678C7.04222 15.5341 7.98904 16.5795 9.19745 17.2256C10.4059 17.8718 11.801 18.0788 13.145 17.8112C14.4889 17.5436 15.6984 16.8181 16.5672 15.7584C17.436 14.6986 17.9102 13.3703 17.909 12C17.9106 11.225 17.7589 10.4573 17.4627 9.74113C17.1665 9.02496 16.7316 8.37444 16.183 7.827ZM14.721 14.721C14.1837 15.2589 13.499 15.6253 12.7534 15.7739C12.0078 15.9225 11.2349 15.8466 10.5324 15.5559C9.83 15.2651 9.22957 14.7725 8.80712 14.1405C8.38467 13.5084 8.15918 12.7652 8.15918 12.005C8.15918 11.2448 8.38467 10.5016 8.80712 9.86953C9.22957 9.23746 9.83 8.7449 10.5324 8.45415C11.2349 8.1634 12.0078 8.08753 12.7534 8.23613C13.499 8.38474 14.1837 8.75115 14.721 9.289C15.0771 9.64468 15.3591 10.0674 15.5508 10.5327C15.7425 10.998 15.8401 11.4967 15.838 12C15.8405 13.0191 15.4388 13.9976 14.721 14.721ZM19.35 4.66C19.2252 4.53524 19.0771 4.43628 18.9141 4.36877C18.7511 4.30125 18.5764 4.2665 18.4 4.2665C18.2236 4.2665 18.0489 4.30125 17.8859 4.36877C17.7229 4.43628 17.5748 4.53524 17.45 4.66C17.3252 4.78476 17.2263 4.93286 17.1588 5.09586C17.0912 5.25886 17.0565 5.43357 17.0565 5.61C17.0565 5.78643 17.0912 5.96114 17.1588 6.12414C17.2263 6.28714 17.3252 6.43524 17.45 6.56C17.7067 6.80292 18.0466 6.93829 18.4 6.93829C18.7534 6.93829 19.0933 6.80292 19.35 6.56C19.598 6.30596 19.7368 5.96502 19.7368 5.61C19.7368 5.25498 19.598 4.91404 19.35 4.66ZM19.35 4.66C19.2252 4.53524 19.0771 4.43628 18.9141 4.36877C18.7511 4.30125 18.5764 4.2665 18.4 4.2665C18.2236 4.2665 18.0489 4.30125 17.8859 4.36877C17.7229 4.43628 17.5748 4.53524 17.45 4.66C17.3252 4.78476 17.2263 4.93286 17.1588 5.09586C17.0912 5.25886 17.0565 5.43357 17.0565 5.61C17.0565 5.78643 17.0912 5.96114 17.1588 6.12414C17.2263 6.28714 17.3252 6.43524 17.45 6.56C17.7067 6.80292 18.0466 6.93829 18.4 6.93829C18.7534 6.93829 19.0933 6.80292 19.35 6.56C19.598 6.30596 19.7368 5.96502 19.7368 5.61C19.7368 5.25498 19.598 4.91404 19.35 4.66ZM16.183 7.827C15.2159 6.8562 13.9419 6.25097 12.5784 6.11454C11.2149 5.97812 9.84626 6.31893 8.70596 7.07887C7.56566 7.83881 6.72431 8.9708 6.32539 10.2818C5.92648 11.5928 5.99472 13.0015 6.51847 14.2678C7.04222 15.5341 7.98904 16.5795 9.19745 17.2256C10.4059 17.8718 11.801 18.0788 13.145 17.8112C14.4889 17.5436 15.6984 16.8181 16.5672 15.7584C17.436 14.6986 17.9102 13.3703 17.909 12C17.9106 11.225 17.7589 10.4573 17.4627 9.74113C17.1665 9.02496 16.7316 8.37444 16.183 7.827ZM14.721 14.721C14.1837 15.2589 13.499 15.6253 12.7534 15.7739C12.0078 15.9225 11.2349 15.8466 10.5324 15.5559C9.83 15.2651 9.22957 14.7725 8.80712 14.1405C8.38467 13.5084 8.15918 12.7652 8.15918 12.005C8.15918 11.2448 8.38467 10.5016 8.80712 9.86953C9.22957 9.23746 9.83 8.7449 10.5324 8.45415C11.2349 8.1634 12.0078 8.08753 12.7534 8.23613C13.499 8.38474 14.1837 8.75115 14.721 9.289C15.0771 9.64468 15.3591 10.0674 15.5508 10.5327C15.7425 10.998 15.8401 11.4967 15.838 12C15.8405 13.0191 15.4388 13.9976 14.721 14.721Z" fill="#888888"/>
</svg>
