<svg width="24" height="22" viewBox="0 0 24 22" fill="none" xmlns="http://www.w3.org/2000/svg">
<path fill-rule="evenodd" clip-rule="evenodd" d="M21.0203 10.6227C21.9369 9.69163 22.4461 8.43462 22.4359 7.12817C22.4256 5.82171 21.8969 4.57282 20.9658 3.65623C20.5048 3.20238 19.959 2.84378 19.3594 2.6009C18.7598 2.35801 18.1182 2.23561 17.4713 2.24066C16.1649 2.25087 14.916 2.77965 13.9994 3.71068C13.7505 3.95957 13.4342 4.26507 13.0505 4.62718L11.9836 5.63182L10.9168 4.62718C10.5322 4.26421 10.2155 3.95871 9.96656 3.71068C9.04276 2.78687 7.78981 2.26789 6.48335 2.26789C5.1769 2.26789 3.92395 2.78687 3.00014 3.71068C1.09714 5.61497 1.07511 8.69373 2.93014 10.6071L11.9836 19.6606L21.0203 10.6227ZM1.89957 2.6114C2.50146 2.00934 3.21606 1.53176 4.00256 1.20592C4.78905 0.880086 5.63203 0.712377 6.48335 0.712377C7.33467 0.712377 8.17765 0.880086 8.96415 1.20592C9.75064 1.53176 10.4652 2.00934 11.0671 2.6114C11.3031 2.84819 11.6086 3.14289 11.9836 3.49549C12.357 3.14289 12.6625 2.84776 12.9001 2.6101C14.1064 1.3853 15.7498 0.689831 17.4688 0.676703C19.1878 0.663575 20.8416 1.33386 22.0664 2.5401C23.2912 3.74634 23.9867 5.38973 23.9998 7.10874C24.0129 8.82775 23.3427 10.4816 22.1364 11.7064L12.9001 20.944C12.657 21.187 12.3274 21.3235 11.9836 21.3235C11.6399 21.3235 11.3102 21.187 11.0671 20.944L1.82827 11.7051C0.643485 10.4832 -0.0131406 8.84427 0.000199354 7.14233C0.0135393 5.44039 0.695774 3.81199 1.89957 2.60881V2.6114Z" fill="#E33026"/>
</svg>
