<svg width="24" height="20" viewBox="0 0 24 20" fill="none" xmlns="http://www.w3.org/2000/svg">
<path d="M21 0H3C2.20435 0 1.44129 0.31607 0.87868 0.87868C0.31607 1.44129 0 2.20435 0 3V18C0 19.1046 0.895431 20 2 20H22C23.1046 20 24 19.1046 24 18V3C24 2.20435 23.6839 1.44129 23.1213 0.87868C22.5587 0.31607 21.7956 0 21 0ZM3 2H21C21.2652 2 21.5196 2.10536 21.7071 2.29289C21.8946 2.48043 22 2.73478 22 3V3.667L14.122 11.546C13.5584 12.1073 12.7954 12.4225 12 12.4225C11.2046 12.4225 10.4416 12.1073 9.878 11.546L2 3.667V3C2 2.73478 2.10536 2.48043 2.29289 2.29289C2.48043 2.10536 2.73478 2 3 2ZM4 18C2.5 18 2 17.5 2 16V6.5L8.464 12.96C9.40263 13.8963 10.6743 14.422 12 14.422C13.3257 14.422 14.5974 13.8963 15.536 12.96L22 6.5V16C22 17.5 21.5 18 20 18H4Z" fill="#888888"/>
</svg>
