<svg width="24" height="20" viewBox="0 0 24 20" fill="none" xmlns="http://www.w3.org/2000/svg">
<path d="M6.48879 4.09165C6.22375 4.09165 5.97329 4.20125 5.79144 4.39026C5.61016 4.57868 5.51121 4.83069 5.51121 5.09002C5.51121 5.34935 5.61016 5.60135 5.79144 5.78977C5.97329 5.97878 6.22375 6.08838 6.48879 6.08838H8.06342C8.32847 6.08838 8.57893 5.97878 8.76077 5.78977C8.94205 5.60135 9.04101 5.34935 9.04101 5.09002C9.04101 4.83069 8.94205 4.57868 8.76077 4.39026C8.57893 4.20125 8.32847 4.09165 8.06342 4.09165H6.48879Z" fill="#888888"/>
<path d="M11.2127 4.09165C10.9476 4.09165 10.6972 4.20125 10.5153 4.39026C10.3341 4.57868 10.2351 4.83069 10.2351 5.09002C10.2351 5.34935 10.3341 5.60135 10.5153 5.78977C10.6972 5.97878 10.9476 6.08838 11.2127 6.08838H12.7873C13.0524 6.08838 13.3028 5.97878 13.4847 5.78977C13.6659 5.60135 13.7649 5.34935 13.7649 5.09002C13.7649 4.83069 13.6659 4.57869 13.4847 4.39026C13.3028 4.20125 13.0524 4.09165 12.7873 4.09165H11.2127Z" fill="#888888"/>
<path d="M6.48879 8.18331C6.22375 8.18331 5.97329 8.2929 5.79144 8.48192C5.61016 8.67034 5.51121 8.92234 5.51121 9.18167C5.51121 9.441 5.61016 9.693 5.79144 9.88142C5.97329 10.0704 6.22375 10.18 6.48879 10.18H8.06342C8.32847 10.18 8.57893 10.0704 8.76077 9.88142C8.94205 9.693 9.04101 9.441 9.04101 9.18167C9.04101 8.92234 8.94205 8.67034 8.76077 8.48192C8.57893 8.2929 8.32847 8.18331 8.06342 8.18331H6.48879Z" fill="#888888"/>
<path d="M11.2127 8.18331C10.9476 8.18331 10.6972 8.2929 10.5153 8.48192C10.3341 8.67034 10.2351 8.92234 10.2351 9.18167C10.2351 9.441 10.3341 9.693 10.5153 9.88142C10.6972 10.0704 10.9476 10.18 11.2127 10.18H12.7873C13.0524 10.18 13.3028 10.0704 13.4847 9.88142C13.6659 9.693 13.7649 9.441 13.7649 9.18167C13.7649 8.92234 13.6659 8.67034 13.4847 8.48192C13.3028 8.2929 13.0524 8.18331 12.7873 8.18331H11.2127Z" fill="#888888"/>
<path fill-rule="evenodd" clip-rule="evenodd" d="M2.55221 0C2.28717 0 2.03671 0.109597 1.85486 0.298609C1.67358 0.487031 1.57463 0.739034 1.57463 0.998363C1.57463 1.25769 1.67358 1.5097 1.85486 1.69812C1.99242 1.8411 2.16925 1.93864 2.36195 1.97766V18.0033H0.977583C0.71254 18.0033 0.46208 18.1129 0.280232 18.3019C0.0989501 18.4903 0 18.7423 0 19.0016C0 19.261 0.0989501 19.513 0.280232 19.7014C0.46208 19.8904 0.71254 20 0.977583 20H23.0224C23.2875 20 23.5379 19.8904 23.7198 19.7014C23.9011 19.513 24 19.261 24 19.0016C24 18.7423 23.9011 18.4903 23.7198 18.3019C23.5379 18.1129 23.2875 18.0033 23.0224 18.0033H21.6381V6.88765C21.8308 6.84862 22.0076 6.75108 22.1451 6.6081C22.3264 6.41968 22.4254 6.16768 22.4254 5.90835C22.4254 5.64902 22.3264 5.39702 22.1451 5.20859C21.9633 5.01958 21.7128 4.90998 21.4478 4.90998H16.9142V1.97766C17.1069 1.93864 17.2837 1.8411 17.4212 1.69812C17.6025 1.5097 17.7015 1.25769 17.7015 0.998363C17.7015 0.739035 17.6025 0.487032 17.4212 0.298609C17.2394 0.109597 16.9889 0 16.7239 0H2.55221ZM4.31711 18.0033V1.99673H14.959V18.0033H12.9776V13.2733C12.9776 13.014 12.8786 12.762 12.6974 12.5736C12.5155 12.3846 12.265 12.275 12 12.275H7.27611C7.01106 12.275 6.7606 12.3846 6.57876 12.5736C6.39747 12.762 6.29852 13.014 6.29852 13.2733V18.0033H4.31711ZM16.9142 18.0033V6.90671H19.6829V18.0033H16.9142ZM8.25369 18.0033V14.2717H11.0224V18.0033H8.25369Z" fill="#888888"/>
</svg>
