<svg width="24" height="25" viewBox="0 0 24 25" fill="none" xmlns="http://www.w3.org/2000/svg">
<path d="M14.2726 16.8434C11.3463 15.6041 9.0192 13.2716 7.78671 10.3424L11.2041 6.91903L4.91213 0.62207L1.72495 3.80824C1.17214 4.36421 0.735073 5.02427 0.439023 5.75025C0.142972 6.47623 -0.00617957 7.25371 0.000196097 8.03771C0.000196097 15.3227 9.29939 24.6219 16.5844 24.6219C17.3682 24.6285 18.1456 24.4795 18.8715 24.1834C19.5973 23.8873 20.2572 23.4501 20.8128 22.8971L24 19.7099L17.703 13.413L14.2726 16.8434ZM19.3926 21.4759C19.0229 21.8416 18.5844 22.1303 18.1023 22.3252C17.6203 22.5202 17.1043 22.6176 16.5844 22.6117C10.3196 22.6117 2.0104 14.3025 2.0104 8.03771C2.00448 7.5179 2.10183 7.00209 2.29679 6.5202C2.49176 6.0383 2.78046 5.59991 3.14616 5.23046L4.91213 3.4645L8.36666 6.91903L5.41669 9.869L5.66294 10.4861C6.38786 12.4253 7.52113 14.186 8.98595 15.6489C10.4508 17.1118 12.2129 18.2428 14.153 18.9652L14.7621 19.1973L17.703 16.2554L21.1576 19.7099L19.3926 21.4759Z" fill="#888888"/>
</svg>
