<svg width="44" height="64" viewBox="0 0 44 64" fill="none" xmlns="http://www.w3.org/2000/svg">
<path d="M39.6406 25.1707L0.666626 0V64L39.6248 38.7387C40.7588 38.0176 41.6937 37.0176 42.3422 35.8321C42.9907 34.6465 43.3317 33.3141 43.3333 31.9591C43.3349 30.6041 42.997 29.2708 42.3513 28.0837C41.7055 26.8966 40.7729 25.8944 39.6406 25.1707ZM36.7937 34.224L5.99996 54.224V9.75467L36.8121 29.6853C37.1926 29.9261 37.5061 30.2611 37.7227 30.6587C37.9394 31.0562 38.0522 31.5032 38.0503 31.9572C38.0485 32.4112 37.9321 32.8572 37.7122 33.2529C37.4923 33.6487 37.1761 33.9811 36.7937 34.2187V34.224Z" fill="#F6F6F6"/>
</svg>
